<svg width="269" height="227" xmlns="http://www.w3.org/2000/svg" xmlns:xlink="http://www.w3.org/1999/xlink" overflow="hidden"><defs><clipPath id="clip0"><path d="M358 278 627 278 627 505 358 505Z" fill-rule="evenodd" clip-rule="evenodd"/></clipPath><clipPath id="clip1"><path d="M359 279 626 279 626 504 359 504Z" fill-rule="evenodd" clip-rule="evenodd"/></clipPath><clipPath id="clip2"><path d="M359 279 626 279 626 504 359 504Z" fill-rule="evenodd" clip-rule="evenodd"/></clipPath><clipPath id="clip3"><path d="M359 258 626 258 626 525 359 525Z" fill-rule="evenodd" clip-rule="evenodd"/></clipPath></defs><g clip-path="url(#clip0)" transform="translate(-358 -278)"><g clip-path="url(#clip1)"><g clip-path="url(#clip2)"><g clip-path="url(#clip3)"><path d="M-126.695-238.187C-126.695-237.92-148.567-199.778-175.373-153.368-202.179-106.957-223.65-68.4154-223.117-67.882-222.45-67.2151-188.709-66.5483-148.033-66.415L-74.15-66.0149-69.8824-58.6799C-67.4819-54.679-65.4814-50.9448-65.3481-50.4114-65.3481-49.7445-107.624-49.3444-159.369-49.3444-226.851-49.3444-253.39-49.7445-253.39-50.8114-253.39-51.6116-229.252-94.1545-199.778-145.499L-146.033-238.587-136.431-238.72C-131.096-238.72-126.695-238.454-126.695-238.187Z" fill="#DC3545" transform="matrix(-1.00102 -0 -0 1 359 524.863)"/><path d="M-67.3485-142.432C-38.0086-91.754-13.8698-49.2111-13.6031-47.8774-13.203-45.4769-19.8711-33.0741-22.005-32.4073-22.8051-32.2739-45.0768-69.749-71.6161-115.759-98.1554-161.77-120.56-199.378-121.627-199.378-122.561-199.378-139.898-170.705-160.036-135.764L-196.711-72.0162-206.446-72.0162C-211.648-72.0162-216.049-72.1496-216.049-72.4163-216.049-73.8833-122.828-234.053-121.761-234.319-121.094-234.586-96.5551-193.244-67.3485-142.432Z" fill="#DC3545" transform="matrix(-1.00102 -0 -0 1 359 524.863)"/><path d="M-74.6835-111.092C-49.3444-67.3485-28.5398-30.8069-28.273-29.74-27.8729-28.273-46.4104-28.0063-136.564-28.0063L-245.255-28.0063-249.256-35.2079C-251.523-39.0755-253.39-42.6763-253.39-43.2097-253.39-43.6098-209.914-44.0099-156.835-44.0099-80.6848-44.0099-60.0135-44.41-58.9466-45.7436-57.8797-46.9439-67.0818-64.0144-94.4213-111.225L-131.23-175.106-127.095-182.574C-124.828-186.575-122.428-190.176-121.761-190.31-121.227-190.576-99.8892-154.968-74.6835-111.092Z" fill="#DC3545" transform="matrix(-1.00102 -0 -0 1 359 524.863)"/></g></g></g></g></svg>